<svg width="396" height="92" viewBox="0 0 396 92" fill="none" xmlns="http://www.w3.org/2000/svg">
<path d="M11.0225 89.0364L2 80.0139V12.3451L11.0225 1.81879H383.953L392.976 10.8413V80.0139L388.738 85.1683L390.476 83.7625L389.968 84.5252L388.738 85.1683L383.953 89.0364H11.0225Z" fill="#817AFF"/>
<path d="M395.427 9.17303H390.825V82.496H395.427V9.17303Z" fill="#0D00FF"/>
<path d="M390.825 82.496H386.254V87.0674H390.825V82.496Z" fill="#0D00FF"/>
<path d="M390.825 4.57147H386.254V9.17295H390.825V4.57147Z" fill="#0D00FF"/>
<path d="M386.254 87.0673H9.17285V91.6688H386.254V87.0673Z" fill="#0D00FF"/>
<path d="M386.254 0H9.17285V4.57141H386.254V0Z" fill="#0D00FF"/>
<path d="M9.17297 82.4958H4.60156V87.0673H9.17297V82.4958Z" fill="#0D00FF"/>
<path d="M9.17297 4.57147H4.60156V9.17295H9.17297V4.57147Z" fill="#0D00FF"/>
<path d="M4.60148 9.17285H0V82.4958H4.60148V9.17285Z" fill="#0D00FF"/>
<path d="M13.5714 8H9V12.6015H13.5714V8Z" fill="white"/>
<path d="M387 4H9V9H387V4Z" fill="white"/>
<path d="M9 9H4V83H9V9Z" fill="white"/>
<path d="M381.429 84H386V79.3985H381.429V84Z" fill="#433EB4"/>
<path d="M10 88H386V84H10V88Z" fill="#433EB4"/>
<path d="M386 83H391V9H386V83Z" fill="#433EB4"/>
<path d="M140.611 63.1672H147.973V52.0271H140.445V48.2495H136.667V33.056H140.445V29.2783H155.639V36.944H151.751V33.1663H144.361V44.3615H151.916V48.084H155.639V63.3326H151.916V67.0551H136.667V59.3895H140.611V63.1672ZM159.306 29.2783H182V33.1663H174.499V67.0551H166.806V33.1663H159.306V29.2783ZM185.612 40.5838H189.417V29.2783H197.083V40.5838H200.805V51.8617H204.583V67.0551H196.917V55.7497H185.777V67.0551H181.834V51.8617H185.612V40.5838ZM189.527 40.7492V51.8617H193.14V40.7492H189.527ZM230.916 33.056H234.694V48.2495H230.916V51.8617H234.694V67.0551H227.028V52.0271H219.639V67.0551H211.945V29.2783H230.916V33.056ZM219.639 33.1663V48.084H227.028V33.1663H219.639ZM238.334 29.2783H261.028V33.1663H253.527V67.0551H245.834V33.1663H238.334V29.2783Z" fill="white"/>
</svg>
